<svg id="Layer_1" data-name="Layer 1" xmlns="http://www.w3.org/2000/svg" xmlns:xlink="http://www.w3.org/1999/xlink" viewBox="0 0 1611.41 265.32"><defs><linearGradient id="linear-gradient" x1="106.87" y1="300.33" x2="298.69" y2="-31.91" gradientUnits="userSpaceOnUse"><stop offset="0" stop-color="#c750bd"/><stop offset="0.37" stop-color="#6366f1"/><stop offset="0.88" stop-color="#6366f1"/></linearGradient></defs><path d="M613.29,119.81V222.72H566.52V191.94c-6.16,23.39-21.92,33.73-49.74,33.73-77.55,0-97-19.69-97-99s19.45-99,97-99c77.8,0,97,14.28,96.51,71.4H559.13c.49-26.59-3.69-29.55-42.35-29.55S474,75.25,474,126.7s4.18,57.12,42.83,57.12c29.55,0,42.84-7.39,43.83-24.62H521.22V119.81Z" fill="#0d0d12"/><path d="M701.67,222.72H674.84c-31.76,0-39.64-8.13-39.39-40.38V25.76h46.77V168.31c0,11.32,2,12.56,19.45,12.56Z" fill="#0d0d12"/><path d="M793.75,72.05c61.8,0,77.31,15.26,77.31,76.81s-15.51,76.81-77.31,76.81-77.31-15.26-77.31-76.81S732,72.05,793.75,72.05Zm-28.07,76.81c0,35.95,2.71,39.88,28.07,39.88s28.07-3.93,28.07-39.88S819.11,109,793.75,109,765.68,112.92,765.68,148.86Z" fill="#0d0d12"/><path d="M912.19,75H853.35V30.69h159.71V75H963.89V222.72h-51.7Z" fill="#0d0d12"/><path d="M1108.17,222.72V199.58c-4.44,18-17.73,26.09-42.1,26.09-38.9,0-48.51-11.08-48.51-55.14L1017.32,75h46.78v84.45c0,24.12,2.21,26.83,21.91,26.83,15.26,0,21.91-7.63,21.91-25.85l.25-85.43h46.77V222.72Z" fill="#0d0d12"/><path d="M1280.5,222.72H1251c-47.27,0-59.09-9.85-59.09-49.73v-58.6H1177.1V75h17.23V43.49h44.32V75H1278v39.39h-39.39v46.53c0,18,1.72,20,17,20h24.87Z" fill="#0d0d12"/><path d="M1372.58,72.05c61.79,0,77.3,15.26,77.3,76.81s-15.51,76.81-77.3,76.81-77.31-15.26-77.31-76.81S1310.78,72.05,1372.58,72.05Zm-28.07,76.81c0,35.95,2.71,39.88,28.07,39.88s28.07-3.93,28.07-39.88S1397.94,109,1372.58,109,1344.51,112.92,1344.51,148.86Z" fill="#0d0d12"/><path d="M1516.36,75v27.33c4.18-19,17.47-27.33,42.09-27.33h17v41.85l-33.23-.49c-18.22-.24-25.85,6.9-25.85,23.39v83h-46.78V75Z" fill="#0d0d12"/><path d="M151.59,132.19V102.68a33.92,33.92,0,0,1,5.17-.4h55.07a35.61,35.61,0,0,1,35.6,35.6v40.23H197.52A45.92,45.92,0,0,1,151.59,132.19ZM197.52,5.93a45.93,45.93,0,0,0-45.93,45.93V69.2H215.2a65.29,65.29,0,0,1,65.3,65.31V178a45.91,45.91,0,0,0,43.27-45.83V57.47L364.21,5.92Zm49.92,172.18v14.83a33.38,33.38,0,0,1-33.37,33.38H103.94l19.45-24.79V135.65a33.38,33.38,0,0,1,28.2-33V69.2H136.25a45.92,45.92,0,0,0-45.93,45.93v75L36,259.4H234.58a45.92,45.92,0,0,0,45.92-45.93V178c-.87.07-1.75.09-2.65.09Z" fill="url(#linear-gradient)"/></svg>